<?xml version="1.0" encoding="utf-8"?>
<!-- Generator: Adobe Illustrator 19.0.0, SVG Export Plug-In . SVG Version: 6.00 Build 0)  -->
<!DOCTYPE svg PUBLIC "-//W3C//DTD SVG 1.1//EN" "http://www.w3.org/Graphics/SVG/1.1/DTD/svg11.dtd">
<svg version="1.1" id="Layer_1" xmlns="http://www.w3.org/2000/svg" xmlns:xlink="http://www.w3.org/1999/xlink" x="0px" y="0px"
	 viewBox="-332 210.3 176 176" style="enable-background:new -332 210.3 176 176;" xml:space="preserve">
<style type="text/css">
	.st0{fill:none;stroke:#FFFFFF;stroke-width:4;stroke-miterlimit:10;}
</style>
<g id="icon">
	<g>
		<circle class="st0" cx="-282" cy="258.3" r="9"/>
		<polyline class="st0" points="-277,312.3 -254,312.3 -254,323.3 		"/>
		<polyline class="st0" points="-263,323.3 -275,323.3 -289,323.3 -289,312.3 		"/>
		<polyline class="st0" points="-254,312.3 -254,347.3 -265,347.3 -265,323.3 		"/>
		<polyline class="st0" points="-275,313.3 -275,294.3 -275,285.3 -263.2,297.3 -262.8,297.3 -238,297.3 -238,290.3 -259.8,290.3 
			-276,273.3 -277,273.3 -289,273.3 -289,313.3 		"/>
		<path class="st0" d="M-238,289.3c0,0,13.7-46,45-46v95"/>
	</g>
</g>
</svg>
