<?xml version="1.0" encoding="utf-8"?>
<!-- Generator: Adobe Illustrator 19.0.0, SVG Export Plug-In . SVG Version: 6.00 Build 0)  -->
<!DOCTYPE svg PUBLIC "-//W3C//DTD SVG 1.1//EN" "http://www.w3.org/Graphics/SVG/1.1/DTD/svg11.dtd">
<svg version="1.1" id="Layer_1" xmlns="http://www.w3.org/2000/svg" xmlns:xlink="http://www.w3.org/1999/xlink" x="0px" y="0px"
	 viewBox="78 -69 176 176" style="enable-background:new 78 -69 176 176;" xml:space="preserve">
<style type="text/css">
	.st0{fill:none;stroke:#FFFFFF;stroke-width:3.6241;stroke-miterlimit:10;}
	.st1{fill:none;stroke:#FFFFFF;stroke-width:4;stroke-miterlimit:10;}
</style>
<g id="Background">
	<g>
		<circle class="st0" cx="206.5" cy="-18.8" r="10"/>
		<polygon class="st1" points="166.5,38.1 167.2,37.4 192.5,12.2 192.5,15.6 192.5,27.2 203.5,27.2 218.5,27.2 218.5,16.2 
			202.5,16.2 202.5,2.2 202.5,0.2 187.7,-14.2 180,-22 172.2,-29.8 164.4,-22 156.6,-14.2 164.4,-6.5 172.2,-14.2 180,-6.5 
			151.7,21.8 113.5,60 121.3,67.8 155.2,33.8 155.5,33.8 155.5,54 139.5,54 139.5,65 155.5,65 166.5,65 166.5,54 		"/>
	</g>
</g>
<g id="Calque_3">
</g>
<g id="icon">
</g>
</svg>
