<?xml version="1.0" encoding="utf-8"?>
<!-- Generator: Adobe Illustrator 19.0.0, SVG Export Plug-In . SVG Version: 6.00 Build 0)  -->
<!DOCTYPE svg PUBLIC "-//W3C//DTD SVG 1.1//EN" "http://www.w3.org/Graphics/SVG/1.1/DTD/svg11.dtd">
<svg version="1.1" id="Layer_1" xmlns="http://www.w3.org/2000/svg" xmlns:xlink="http://www.w3.org/1999/xlink" x="0px" y="0px"
	 viewBox="-332 210.3 176 176" style="enable-background:new -332 210.3 176 176;" xml:space="preserve">
<style type="text/css">
	.st0{fill:none;stroke:#FFFFFF;stroke-width:3.6241;stroke-miterlimit:10;}
	.st1{fill:none;stroke:#FFFFFF;stroke-width:4;stroke-miterlimit:10;}
</style>
<g id="icon">
	<g>
		<circle class="st0" cx="-206" cy="259.3" r="10"/>
		<polyline class="st1" points="-233.4,256.8 -241.9,248.3 -249.7,256.1 -263.1,269.5 -255.3,277.3 -253.2,275.2 -241.9,263.9 
			-234.1,271.7 -262.3,300 -300.4,338.1 -292.7,345.9 -258.7,312 -258,311.3 -258,333.3 -278,333.3 -278,343.3 -258.5,343.1 
			-247.5,343.1 -247.5,332.1 -247.5,316.2 -246.7,315.5 -221.4,290.3 -221.4,293.7 -221.4,305.3 -210.4,305.3 -191.4,305.3 
			-191.4,294.3 -211.4,294.3 -211.4,280.3 -211.5,278.7 -233.4,256.8 		"/>
	</g>
</g>
</svg>
