<?xml version="1.0" encoding="utf-8"?>
<!-- Generator: Adobe Illustrator 19.0.0, SVG Export Plug-In . SVG Version: 6.00 Build 0)  -->
<!DOCTYPE svg PUBLIC "-//W3C//DTD SVG 1.1//EN" "http://www.w3.org/Graphics/SVG/1.1/DTD/svg11.dtd">
<svg version="1.1" id="Layer_1" xmlns="http://www.w3.org/2000/svg" xmlns:xlink="http://www.w3.org/1999/xlink" x="0px" y="0px"
	 viewBox="78 -69 176 176" style="enable-background:new 78 -69 176 176;" xml:space="preserve">
<style type="text/css">
	.st0{fill:none;stroke:#FFFFFF;stroke-width:4;stroke-miterlimit:10;}
</style>
<g id="Background">
	<g>
		<rect x="116.6" y="60.6" class="st0" width="98.7" height="10.6"/>
		<g>
			<path class="st0" d="M188.3-21.7c0,2.9-4.8,5.3-10.6,5.3c-5.9,0-10.6-2.4-10.6-5.3c0-0.2,0-11.6,0-11.6c0,2.9,4.8,5.3,10.6,5.3
				c5.9,0,10.6-2.4,10.6-5.3V-21.7z"/>
			<line class="st0" x1="167" y1="-33.3" x2="167" y2="-4.2"/>
		</g>
		<path class="st0" d="M166,59.7"/>
		<path class="st0" d="M128.2,25.8c0-17.6,16.9-31.9,37.8-31.9s37.8,14.3,37.8,31.9"/>
		<rect x="128.2" y="25.8" class="st0" width="14.5" height="34.9"/>
		<rect x="189.2" y="25.8" class="st0" width="14.5" height="34.9"/>
		<rect x="159.2" y="25.8" class="st0" width="14.5" height="34.9"/>
		<line class="st0" x1="203.8" y1="25.8" x2="128.2" y2="25.8"/>
	</g>
</g>
<g id="Calque_3">
</g>
<g id="icon">
</g>
</svg>
