<?xml version="1.0" encoding="utf-8"?>
<!-- Generator: Adobe Illustrator 19.0.0, SVG Export Plug-In . SVG Version: 6.00 Build 0)  -->
<!DOCTYPE svg PUBLIC "-//W3C//DTD SVG 1.1//EN" "http://www.w3.org/Graphics/SVG/1.1/DTD/svg11.dtd">
<svg version="1.1" id="Layer_1" xmlns="http://www.w3.org/2000/svg" xmlns:xlink="http://www.w3.org/1999/xlink" x="0px" y="0px"
	 viewBox="-332 210.3 176 176" style="enable-background:new -332 210.3 176 176;" xml:space="preserve">
<style type="text/css">
	.st0{fill:none;stroke:#FFFFFF;stroke-width:4;stroke-miterlimit:10;}
</style>
<g id="icon">
	<g>
		<g>
			<polygon class="st0" points="-256.2,303.7 -280,327.5 -286.4,333.9 -286,334.2 -275.8,344.5 -269.4,338.1 -245.6,314.3 			"/>
			<path class="st0" d="M-201,269.4l-5.4,5.4c-3.1,3.1-8,3.4-10.8,0.5c-2.8-2.8-2.6-7.7,0.5-10.8l5.4-5.4
				c-5.5-1.8-11.9-0.5-16.2,3.9c-4.3,4.3-5.7,10.5-4,16l-14.3,14.3l10.5,10.7l14.4-14.4c5.5,1.7,11.7,0.4,16-4
				C-200.5,281.2-199.2,274.9-201,269.4z"/>
		</g>
		<polygon class="st0" points="-287.8,272.2 -277.2,261.6 -267.3,251.7 -251.7,267.3 -261.6,277.2 -205.4,334.3 -215.4,344.3 
			-272.2,287.8 -282.8,298.4 -287.8,293.5 -287.8,272.9 		"/>
	</g>
</g>
</svg>
