<?xml version="1.0" encoding="utf-8"?>
<!-- Generator: Adobe Illustrator 19.0.0, SVG Export Plug-In . SVG Version: 6.00 Build 0)  -->
<!DOCTYPE svg PUBLIC "-//W3C//DTD SVG 1.1//EN" "http://www.w3.org/Graphics/SVG/1.1/DTD/svg11.dtd">
<svg version="1.1" id="Layer_1" xmlns="http://www.w3.org/2000/svg" xmlns:xlink="http://www.w3.org/1999/xlink" x="0px" y="0px"
	 viewBox="78 -69 176 176" style="enable-background:new 78 -69 176 176;" xml:space="preserve">
<style type="text/css">
	.st0{fill:none;stroke:#FFFFFF;stroke-width:4;stroke-miterlimit:10;}
</style>
<g id="icon">
	<g>
		<polygon class="st0" points="146.9,-34 136,-23.1 124.3,-11.4 112.6,0.3 129.7,17.4 141.4,5.7 207.7,72 219.4,60.3 153.1,-6 
			164,-16.9 		"/>
		<g>
			<path class="st0" d="M164.5,4.9l11.7,11.7l12.9-12.9c6,1.8,12.9,0.4,17.7-4.4s6.3-11.8,4.3-17.9l-6,6c-3.4,3.4-8.8,3.7-11.9,0.6
				c-3.1-3.1-2.9-8.5,0.6-11.9l6-6c-6.1-2-13.1-0.5-17.9,4.3c-4.9,4.8-6.4,11.6-4.5,17.7L164.5,4.9z"/>
			<polygon class="st0" points="152.8,16.6 123.8,45.6 116.8,52.6 117.2,53 128.5,64.3 135.6,57.3 164.5,28.3 			"/>
		</g>
	</g>
</g>
</svg>
