<?xml version="1.0" encoding="utf-8"?>
<!-- Generator: Adobe Illustrator 19.0.0, SVG Export Plug-In . SVG Version: 6.00 Build 0)  -->
<!DOCTYPE svg PUBLIC "-//W3C//DTD SVG 1.1//EN" "http://www.w3.org/Graphics/SVG/1.1/DTD/svg11.dtd">
<svg version="1.1" id="Layer_1" xmlns="http://www.w3.org/2000/svg" xmlns:xlink="http://www.w3.org/1999/xlink" x="0px" y="0px"
	 viewBox="-332 210.3 176 176" style="enable-background:new -332 210.3 176 176;" xml:space="preserve">
<style type="text/css">
	.st0{fill:#FFFFFF;stroke:#FFFFFF;stroke-width:4;stroke-miterlimit:10;}
	.st1{fill:none;stroke:#FFFFFF;stroke-width:4;stroke-miterlimit:10;}
</style>
<g id="icon">
	<path class="st0" d="M-262.8,303.5"/>
	<path class="st1" d="M-253,335.3c0.9,0.7,2,1.4,3,2.1c1.2,0.7,2.5,1.4,3.8,1.9c14.8,6.1,31.9-0.9,38-15.7l17.2-41.5
		c0,0-20.6-25.9-53.7-22.3l-2.3,5.5"/>
	<path class="st1" d="M-240,313.4c1.4,0.3,2.7,0.7,4,1.3c9.4,3.9,15.1,14.1,15.1,14.1c4.1-9.9-0.6-21.2-10.5-25.3
		c-2.2-0.9-4.4-1.4-6.7-1.5"/>
	<path class="st1" d="M-296.4,311.6c0,16.1,13,29.1,29.1,29.1c16.1,0,29.1-13,29.1-29.1v-44.8c0,0-28.9-16.1-58.2,0v47.3"/>
	<path class="st1" d="M-286.7,304.4c0,10.7,8.7,19.4,19.4,19.4c10.7,0,19.3-8.7,19.3-19.4c0,0-9.2,7.3-19.4,7.3
		C-277.6,311.7-286.7,304.4-286.7,304.4z"/>
	<path class="st1" d="M-273.9,281.3c0,0-6.9-6.7-14,0"/>
	<path class="st1" d="M-245.9,281.3c0,0-6.9-6.7-14,0"/>
	<path class="st1" d="M-231.3,281.7c0,0-2.1-5.5-7.5-6.4"/>
	<path class="st1" d="M-205.9,293.3c0,0-3.5-8.9-12.7-5.8"/>
	<path class="st1" d="M-237.9,273.3"/>
</g>
</svg>
