<?xml version="1.0" encoding="utf-8"?>
<!-- Generator: Adobe Illustrator 19.0.0, SVG Export Plug-In . SVG Version: 6.00 Build 0)  -->
<!DOCTYPE svg PUBLIC "-//W3C//DTD SVG 1.1//EN" "http://www.w3.org/Graphics/SVG/1.1/DTD/svg11.dtd">
<svg version="1.1" id="Layer_1" xmlns="http://www.w3.org/2000/svg" xmlns:xlink="http://www.w3.org/1999/xlink" x="0px" y="0px"
	 viewBox="78 -69 176 176" style="enable-background:new 78 -69 176 176;" xml:space="preserve">
<style type="text/css">
	.st0{fill:#FFFFFF;stroke:#FFFFFF;stroke-width:4;stroke-miterlimit:10;}
	.st1{fill:none;stroke:#FFFFFF;stroke-width:4;stroke-miterlimit:10;}
</style>
<g id="icon">
	<g>
		<path class="st0" d="M146.9,22"/>
		<path class="st1" d="M156.7,53.8c0.9,0.7,2,1.4,3,2.1c1.2,0.7,2.5,1.4,3.8,1.9c14.8,6.1,31.9-0.9,38-15.7l17.2-41.4
			c0,0-20.6-25.9-53.7-22.3l-2.2,5.4"/>
		<path class="st1" d="M172.7-9c0.6,0.1,1.3,0.2,1.9,0.5c3.4,1.4,5,5.3,3.6,8.7"/>
		<path class="st1" d="M195,7.2c1.4-3.4,5.3-5,8.7-3.6s5,5.3,3.6,8.7"/>
		<path class="st1" d="M169.7,31.9c1.4,0.3,2.7,0.7,4,1.3c9.4,3.9,15.1,14.1,15.1,14.1c4.1-9.9-0.6-21.2-10.5-25.3
			c-2.2-0.9-4.4-1.4-6.7-1.5"/>
		<path class="st1" d="M113.3,30.1c0,16.1,13,29.1,29.1,29.1s29.1-13,29.1-29.1v-44.8c0,0-28.9-16.1-58.2,0v47.3"/>
		<path class="st1" d="M121.7-0.5c0-3.7,3-6.8,6.8-6.8c3.7,0,6.8,3,6.8,6.8"/>
		<path class="st1" d="M152.1,0.4c0-3.7,3-6.7,6.7-6.7c3.7,0,6.7,3,6.7,6.7"/>
		<path class="st1" d="M123,22.8c0,10.7,8.7,19.4,19.4,19.4c10.7,0,19.4-8.7,19.4-19.4c0,0-9.2,7.3-19.4,7.3
			C132.2,30.1,123,22.8,123,22.8z"/>
	</g>
</g>
</svg>
