<?xml version="1.0" encoding="utf-8"?>
<!-- Generator: Adobe Illustrator 19.0.0, SVG Export Plug-In . SVG Version: 6.00 Build 0)  -->
<!DOCTYPE svg PUBLIC "-//W3C//DTD SVG 1.1//EN" "http://www.w3.org/Graphics/SVG/1.1/DTD/svg11.dtd">
<svg version="1.1" id="Layer_1" xmlns="http://www.w3.org/2000/svg" xmlns:xlink="http://www.w3.org/1999/xlink" x="0px" y="0px"
	 viewBox="78 -69 176 176" style="enable-background:new 78 -69 176 176;" xml:space="preserve">
<style type="text/css">
	.st0{fill:none;stroke:#FFFFFF;stroke-width:3.8901;stroke-miterlimit:10;}
	.st1{fill:none;stroke:#FFFFFF;stroke-width:4;stroke-miterlimit:10;}
</style>
<g id="Background">
	<g>
		<path class="st0" d="M188,0.9c18.3,2.6,31,8.2,31,14.7c0,8.9-23.7,16.2-53,16.2s-53-7.3-53-16.2c0-6.5,12.7-12.2,31-14.7"/>
		<path class="st0" d="M144,4.3c0-12.2,9.8-22,22-22s22,9.8,22,22"/>
		<path class="st0" d="M188,4.3c0,3-9.8,5.5-22,5.5s-22-2.5-22-5.5"/>
		<path class="st0" d="M190,0.8"/>
		<line class="st1" x1="184.9" y1="34.8" x2="189" y2="55.7"/>
		<line class="st1" x1="147.1" y1="34.8" x2="143" y2="55.7"/>
	</g>
</g>
<g id="Calque_3">
</g>
<g id="icon">
</g>
</svg>
