<?xml version="1.0" encoding="utf-8"?>
<!-- Generator: Adobe Illustrator 19.0.0, SVG Export Plug-In . SVG Version: 6.00 Build 0)  -->
<!DOCTYPE svg PUBLIC "-//W3C//DTD SVG 1.1//EN" "http://www.w3.org/Graphics/SVG/1.1/DTD/svg11.dtd">
<svg version="1.1" id="Layer_1" xmlns="http://www.w3.org/2000/svg" xmlns:xlink="http://www.w3.org/1999/xlink" x="0px" y="0px"
	 viewBox="0 0 32 32" enable-background="new 0 0 32 32" xml:space="preserve">
<g id="XMLID_16_">
	<path id="XMLID_29_" fill="#F16122" d="M16,7.5l1.7,5.2l0.4,1.4h1.5h5.5l-4.4,3.2l-1.2,0.9l0.4,1.4l1.7,5.2l-4.4-3.2L16,20.7
		l-1.2,0.9l-4.4,3.2l1.7-5.2l0.4-1.4l-1.2-0.9l-4.4-3.2h5.5h1.5l0.4-1.4L16,7.5 M16,1.1l-3.6,11.1H0.8l9.4,6.8L6.6,30l9.4-6.8
		l9.4,6.8l-3.6-11.1l9.4-6.8H19.6L16,1.1L16,1.1z"/>
</g>
</svg>
