<?xml version="1.0" encoding="utf-8"?>
<!-- Generator: Adobe Illustrator 19.0.0, SVG Export Plug-In . SVG Version: 6.00 Build 0)  -->
<!DOCTYPE svg PUBLIC "-//W3C//DTD SVG 1.1//EN" "http://www.w3.org/Graphics/SVG/1.1/DTD/svg11.dtd">
<svg version="1.1" id="Layer_1" xmlns="http://www.w3.org/2000/svg" xmlns:xlink="http://www.w3.org/1999/xlink" x="0px" y="0px"
	 viewBox="8 2 36 36" style="enable-background:new 8 2 36 36;" xml:space="preserve">
<style type="text/css">
	.st0{fill:#232A41;}
</style>
<g id="XMLID_39_">
	<g id="XMLID_74_">
		<path id="XMLID_79_" class="st0" d="M26,28c5.8,0,10-7.2,10-17.1c0-4-1.7-8.9-10-8.9c-8.2,0-10,4.8-10,8.9C16,20.8,20.2,28,26,28z
			 M26,4c5.4,0,8,2.2,8,6.9c0,8.6-3.4,15.1-8,15.1c-4.5,0-8-6.5-8-15.1C18,6.2,20.6,4,26,4z M43.8,34.6L43,32.5
			c-0.5-1.3-1.6-2.6-3-3.4l-5.4-3c-0.5-0.3-1.1-0.1-1.4,0.4s-0.1,1.1,0.4,1.4l5.4,3c1,0.6,1.8,1.5,2.1,2.3l0.8,2.1
			c0,0.1,0,0.3,0,0.4c-0.1,0.1-0.2,0.2-0.3,0.3c-0.1,0-0.1,0-0.2,0H10.6c-0.1,0-0.1,0-0.2,0c-0.1,0-0.2-0.1-0.3-0.3
			c-0.1-0.1-0.1-0.3,0-0.4l0.8-2.1c0.3-0.9,1.1-1.8,2.1-2.3l5.4-3c0.5-0.3,0.7-0.9,0.4-1.4s-0.9-0.7-1.4-0.4l-5.5,3
			c-1.4,0.8-2.5,2.1-3,3.4l-0.8,2.1C8,35.2,8,35.9,8.3,36.5s0.8,1.1,1.4,1.3c0.3,0.1,0.6,0.2,0.9,0.2h30.8c0.3,0,0.6,0,0.9-0.1
			c0.6-0.2,1.1-0.7,1.4-1.3C44,35.9,44,35.2,43.8,34.6z"/>
	</g>
</g>
</svg>
