<?xml version="1.0" encoding="utf-8"?>
<!-- Generator: Adobe Illustrator 18.1.1, SVG Export Plug-In . SVG Version: 6.00 Build 0)  -->
<!DOCTYPE svg PUBLIC "-//W3C//DTD SVG 1.1//EN" "http://www.w3.org/Graphics/SVG/1.1/DTD/svg11.dtd">
<svg version="1.1" id="Layer_1" xmlns="http://www.w3.org/2000/svg" xmlns:xlink="http://www.w3.org/1999/xlink" x="0px" y="0px"
	 viewBox="0 0 46 46" enable-background="new 0 0 46 46" xml:space="preserve">
<g>
	<g>
		<path fill="#454545" d="M17.1,34c-9.4,0-17-7.6-17-17s7.6-17,17-17c9.4,0,17,7.6,17,17S26.4,34,17.1,34z M17.1,2
			c-8.3,0-15,6.7-15,15c0,8.3,6.7,15,15,15s15-6.7,15-15C32.1,8.7,25.3,2,17.1,2z"/>
	</g>
	<g>
		<path fill="#454545" d="M42.1,46c-1.1,0-2.1-0.4-2.8-1.2l-8-8c-0.8-0.8-1.2-1.8-1.2-2.8c0-2.2,1.8-4,4-4c1.1,0,2.1,0.4,2.8,1.2
			l8,8c0.8,0.8,1.2,1.8,1.2,2.8C46.1,44.2,44.3,46,42.1,46z M34.1,32c-1.1,0-2,0.9-2,2c0,0.5,0.2,1,0.6,1.4l8,8
			c0.4,0.4,0.9,0.6,1.4,0.6c1.1,0,2-0.9,2-2c0-0.5-0.2-1-0.6-1.4l-8-8C35.1,32.2,34.6,32,34.1,32z"/>
	</g>
</g>
</svg>
