<?xml version="1.0" encoding="utf-8"?>
<!-- Generator: Adobe Illustrator 18.1.1, SVG Export Plug-In . SVG Version: 6.00 Build 0)  -->
<!DOCTYPE svg PUBLIC "-//W3C//DTD SVG 1.1//EN" "http://www.w3.org/Graphics/SVG/1.1/DTD/svg11.dtd">
<svg version="1.1" id="Layer_1" xmlns="http://www.w3.org/2000/svg" xmlns:xlink="http://www.w3.org/1999/xlink" x="0px" y="0px"
	 viewBox="0 0 46 46" enable-background="new 0 0 46 46" xml:space="preserve">
<g>
	<path fill="#454545" d="M23,27.6c-2.8,0-6.6-4-7.9-5.8c-1.7-2.4-2.2-6.4-2.2-6.6c0-0.7-0.2-6.2,0-7.4c0.2-1.4,2-5.4,4.8-6.6
		c1.4-0.6,3.5-0.9,5.7-0.9c1.2,0,3.6,0.1,5.2,0.9c2.8,1.4,4.8,5.2,4.8,6.7l0,7.3c0,0.2-0.6,4.2-2.3,6.5C29.7,23.6,25.8,27.6,23,27.6
		z M14.8,15.1c0,0,0.5,3.6,1.9,5.5c1.7,2.3,4.8,5,6.3,5c1.5,0,4.7-2.7,6.4-5c1.3-1.8,1.8-5.1,1.9-5.6V8c0-0.7-1.6-3.8-3.7-4.9
		c-0.9-0.5-2.5-0.7-4.3-0.7c-1.9,0-3.8,0.3-4.9,0.8c-1.9,0.8-3.4,3.9-3.6,5C14.7,9,14.7,12.9,14.8,15.1
		C14.8,15.1,14.8,15.1,14.8,15.1z"/>
	<path fill="#454545" d="M27.2,45.6h-8.4c-11.7,0-15.8-0.3-17.2-2.2c-1-1.3-0.5-3,0.2-5.1l0.1-0.3c1.5-4.8,2.9-6,3.7-6.3l10.2-4.9
		l0.9,1.8L6,33.6c-0.2,0.2-1.2,1.1-2.3,4.9l-0.1,0.4c-0.5,1.6-0.9,2.8-0.5,3.3c1,1.3,7.7,1.4,15.6,1.4h8.4c7.7,0,14.7-0.1,15.7-1.5
		c0.4-0.5,0-1.8-0.5-3.4l-0.1-0.2c-1.2-3.8-2.1-4.9-2.3-4.9h0l-10.3-5.1l0.9-1.8l10.1,4.9c0.9,0.3,2.2,1.6,3.6,6.3l0.1,0.3
		c0.7,2.2,1.2,3.9,0.2,5.2C43.1,45.2,39.7,45.6,27.2,45.6z"/>
</g>
</svg>
