<?xml version="1.0" encoding="utf-8"?>
<!-- Generator: Adobe Illustrator 19.0.0, SVG Export Plug-In . SVG Version: 6.00 Build 0)  -->
<!DOCTYPE svg PUBLIC "-//W3C//DTD SVG 1.1//EN" "http://www.w3.org/Graphics/SVG/1.1/DTD/svg11.dtd">
<svg version="1.1" id="Layer_1" xmlns="http://www.w3.org/2000/svg" xmlns:xlink="http://www.w3.org/1999/xlink" x="0px" y="0px"
	 viewBox="8 2 36 36" style="enable-background:new 8 2 36 36;" xml:space="preserve">
<style type="text/css">
	.st0{fill:#232A41;}
</style>
<g id="XMLID_2_">
	<g id="XMLID_51_">
		<path id="XMLID_52_" class="st0" d="M37.9,24.9V2H26c-1.2,0-2.3,0.5-3,1.4C22.2,2.5,21.2,2,20,2H8v29.9h12c1.1,0,2,0.9,2,2h2
			c0-1.1,0.9-2,2-2h4.9L37,38l7.1-7.1L37.9,24.9z M22,30.5c-0.6-0.3-1.3-0.5-2-0.5H10V4h10c1.1,0,2,0.9,2,2V30.5z M26,29.9
			c-0.7,0-1.4,0.2-2,0.5V6c0-1.1,0.9-2,2-2h10v18.9l-1.5-1.5c-1-0.9-2.2-1.4-3.5-1.4s-2.6,0.5-3.5,1.5c-1,0.9-1.5,2.1-1.5,3.5
			c0,1.3,0.5,2.6,1.5,3.5L29,30h-3V29.9z M28.8,27.1C28.3,26.5,28,25.8,28,25s0.3-1.6,0.9-2.1c0.6-0.6,1.3-0.9,2.1-0.9
			c0.8,0,1.6,0.3,2.1,0.9l8.1,8.1L37,35.2L28.8,27.1z M31,24c-0.6,0-1,0.4-1,1s0.4,1,1,1s1-0.4,1-1S31.5,24,31,24z"/>
	</g>
</g>
</svg>
