<?xml version="1.0" encoding="utf-8"?>
<!-- Generator: Adobe Illustrator 18.1.1, SVG Export Plug-In . SVG Version: 6.00 Build 0)  -->
<!DOCTYPE svg PUBLIC "-//W3C//DTD SVG 1.1//EN" "http://www.w3.org/Graphics/SVG/1.1/DTD/svg11.dtd">
<svg version="1.1" id="Layer_1" xmlns="http://www.w3.org/2000/svg" xmlns:xlink="http://www.w3.org/1999/xlink" x="0px" y="0px"
	 viewBox="0 0 46 46" enable-background="new 0 0 46 46" xml:space="preserve">
<g>
	<rect x="4.3" y="6.6" fill="#454545" width="16" height="2"/>
	<rect x="4.3" y="10.6" fill="#454545" width="14" height="2"/>
	<rect x="4.3" y="14.6" fill="#454545" width="16" height="2"/>
	<rect x="26.3" y="6.6" fill="#454545" width="16" height="2"/>
	<rect x="26.3" y="10.6" fill="#454545" width="14" height="2"/>
	<rect x="26.3" y="14.6" fill="#454545" width="16" height="2"/>
	<path fill="#454545" d="M26,0.6c-1.1,0-2.3,0.5-3.1,1.3c-0.7-0.8-1.7-1.3-2.8-1.3H0.3v43.6h19.8v0c1,0,1.8,0.6,1.8,1.6h2h0
		c0,0,0,0,0,0c0-1,1.2-1.6,2.2-1.6v0h19.8V0.6H26z M20.1,42.2L20.1,42.2l-17.8,0V2.6h17.8c1,0,1.8,0.6,1.8,1.6v38.5
		C21.3,42.4,20.7,42.2,20.1,42.2z M43.8,42.2H26v0c-0.8,0-1.5,0.3-2.2,0.7V4.2h0h0c0,0,0,0,0,0c0-1,1.2-1.6,2.2-1.6h17.8V42.2z"/>
</g>
</svg>
