<?xml version="1.0" encoding="utf-8"?>
<!-- Generator: Adobe Illustrator 19.0.0, SVG Export Plug-In . SVG Version: 6.00 Build 0)  -->
<!DOCTYPE svg PUBLIC "-//W3C//DTD SVG 1.1//EN" "http://www.w3.org/Graphics/SVG/1.1/DTD/svg11.dtd">
<svg version="1.1" id="Layer_1" xmlns="http://www.w3.org/2000/svg" xmlns:xlink="http://www.w3.org/1999/xlink" x="0px" y="0px"
	 viewBox="8 2 36 36" style="enable-background:new 8 2 36 36;" xml:space="preserve">
<style type="text/css">
	.st0{fill:#232A41;}
</style>
<g id="XMLID_12_">
	<g id="XMLID_107_">
		<path id="XMLID_108_" class="st0" d="M20,2C13.5,2,8.1,7.4,8.1,14S13.5,26,20,26c6.6,0,12-5.4,12-12S26.6,2,20,2z M20,24
			c-5.5,0-9.9-4.5-9.9-10S14.6,4,20,4c5.5,0,10,4.5,10,10S25.5,24,20,24z M43,32.9l-7.9-8c-1.1-1.1-3.1-1.1-4.2,0
			c-1.2,1.2-1.2,3.1,0,4.2l7.9,8c0.6,0.6,1.3,0.9,2.1,0.9s1.5-0.3,2.1-0.9C44.2,36,44.2,34,43,32.9z M41.6,35.7
			c-0.4,0.4-1,0.4-1.4,0l-7.9-8c-0.4-0.4-0.4-1,0-1.4c0.2-0.2,0.4-0.3,0.7-0.3c0.3,0,0.5,0.1,0.7,0.3l7.9,8
			C42,34.7,42,35.3,41.6,35.7z"/>
	</g>
</g>
</svg>
