<?xml version="1.0" encoding="utf-8"?>
<!-- Generator: Adobe Illustrator 19.0.0, SVG Export Plug-In . SVG Version: 6.00 Build 0)  -->
<!DOCTYPE svg PUBLIC "-//W3C//DTD SVG 1.1//EN" "http://www.w3.org/Graphics/SVG/1.1/DTD/svg11.dtd">
<svg version="1.1" id="Layer_1" xmlns="http://www.w3.org/2000/svg" xmlns:xlink="http://www.w3.org/1999/xlink" x="0px" y="0px"
	 viewBox="-402 280.3 36 36" style="enable-background:new -402 280.3 36 36;" xml:space="preserve">
<style type="text/css">
	.st0{fill:#232A41;}
</style>
<g>
	<g>
		<path class="st0" d="M-390.1,280.3c-6.6,0-11.9,5.4-11.9,12s5.3,12,11.9,12c6.6,0,11.9-5.4,11.9-12S-383.5,280.3-390.1,280.3z
			 M-390.1,302.3c-5.5,0-9.9-4.5-9.9-10c0-5.5,4.4-10,9.9-10c5.5,0,9.9,4.5,9.9,10C-380.2,297.8-384.6,302.3-390.1,302.3z
			 M-369.1,309.2l-6.9-7c-1.1-1.1-3.1-1.1-4.2,0c-1.2,1.2-1.2,3.1,0,4.2l6.9,7c0.6,0.6,1.3,0.9,2.1,0.9c0.8,0,1.5-0.3,2.1-0.9
			C-368,312.2-368,310.3-369.1,309.2z M-370.5,312c-0.4,0.4-1,0.4-1.4,0l-6.9-7c-0.4-0.4-0.4-1,0-1.4c0.2-0.2,0.4-0.3,0.7-0.3
			c0.3,0,0.5,0.1,0.7,0.3l6.9,7C-370.2,311-370.2,311.6-370.5,312z"/>
	</g>
</g>
</svg>
